HIERARCHY
ROOT pelvis
{
  OFFSET 0 100 0
  CHANNELS 6 Xposition Yposition Zposition Zrotation Xrotation Yrotation
  JOINT pelvis_right_femur
  {
    OFFSET -10.78128 -3.44521 -0.5502486
    CHANNELS 3 Zrotation Xrotation Yrotation
    JOINT right_femur_tibia
    {
      OFFSET -0.8047443 -44.0398 -0.1307829
      CHANNELS 3 Zrotation Xrotation Yrotation
      JOINT right_tibia_foot
      {
        OFFSET 3.006224 -47.83518 -5
        CHANNELS 3 Zrotation Xrotation Yrotation
        End Site
        {
          OFFSET 0 -5 15
        }
      }
    }
  }
  JOINT pelvis_left_femur
  {
    OFFSET 10.78128 -3.44521 -0.5502486
    CHANNELS 3 Zrotation Xrotation Yrotation
    JOINT left_femur_tibia
    {
      OFFSET 0.8047443 -44.0398 -0.1307829
      CHANNELS 3 Zrotation Xrotation Yrotation
      JOINT left_tibia_foot
      {
        OFFSET -4.370144 -48.10324 -4.275266
        CHANNELS 3 Zrotation Xrotation Yrotation
        End Site
        {
          OFFSET 0 -5 15
        }
      }
    }
  }
  JOINT pelvis_spine1
  {
    OFFSET 0 6.468898 -3.129235
    CHANNELS 3 Zrotation Xrotation Yrotation
    JOINT spine1
    {
      OFFSET 0 23.15396 4.99043
      CHANNELS 3 Zrotation Xrotation Yrotation
      JOINT spine2
      {
        OFFSET 0 20.79997 -5.064912
        CHANNELS 3 Zrotation Xrotation Yrotation
        JOINT neck
        {
          OFFSET 0 14.38658 9.616178
          CHANNELS 3 Zrotation Xrotation Yrotation
          End Site
          {
            OFFSET 0 20 0
          }
        }
      }
      JOINT right_manubrium
      {
        OFFSET -5.722621 16.35077 3.967754
        CHANNELS 3 Zrotation Xrotation Yrotation
        JOINT right_clavicle
        {
          OFFSET -13.16364 1.694482 -4.693211
          CHANNELS 3 Zrotation Xrotation Yrotation
          JOINT right_humerus
          {
            OFFSET -28.5034 -0.3100689 -2.792744
            CHANNELS 3 Zrotation Xrotation Yrotation
            JOINT right_radius
            {
              OFFSET -25.15693 0.02248979 -1.271978
              CHANNELS 3 Zrotation Xrotation Yrotation
              End Site
              {
                OFFSET -15 0 0
              }
            }
          }
        }
      }
      JOINT left_manubrium
      {
        OFFSET 5.722621 16.35077 3.967754
        CHANNELS 3 Zrotation Xrotation Yrotation
        JOINT left_clavicle
        {
          OFFSET 13.16364 1.694482 -4.693211
          CHANNELS 3 Zrotation Xrotation Yrotation
          JOINT left_humerus
          {
            OFFSET 29.39168 -1.063119 -2.237045
            CHANNELS 3 Zrotation Xrotation Yrotation
            JOINT left_radius
            {
              OFFSET 24.59957 -0.9528479 0.9047498
              CHANNELS 3 Zrotation Xrotation Yrotation
              End Site
              {
                OFFSET 15 -0 -0
              }
            }
          }
        }
      }
    }
  }
}
MOTION
Frames: 13
Frame Time: 0.0416666666667
36.61999 102.5348 233.766 0.7619325 -5.817419 1.921566 2.142025 11.62801 4.508267 -2.950675e-10 31.66447 9.710619e-11 -3.16841 -10.41499 -1.621632 -1.909791 -18.48875 -9.050354 -3.37589e-10 19.12627 5.253415e-10 -1.995526 -8.839579 20.54047 -1.780705 -0.9602882 7.090554 -0.345431 10.1217 -3.93881 1.649159 22.06748 5.842247 2.467953 -18.92581 7.320522 2.376892 -21.9097 11.71475 81.72443 26.24378 -7.005433 -3.649576e-11 -2.246362e-11 22.68682 -22.63437 12.14232 13.36016 4.679403 -17.13548 -1.928015 -94.87501 20.46618 26.64918 1.766237e-11 -1.591796e-11 -6.927291 1.594672 11.82474 10.66062
37.75633 102.5078 238.9149 0.7971155 -5.541014 1.823892 1.939289 9.750168 4.642512 -2.941627e-10 33.26656 1.156592e-10 -3.052329 -10.16834 -1.765843 -2.502902 -16.70603 -9.951677 -3.885561e-10 17.05481 4.348297e-10 -1.637178 -9.847723 20.79479 -1.998347 -1.019 6.862763 -0.2390752 9.99789 -4.151187 1.635524 22.22364 6.025628 2.519108 -19.24071 7.560099 2.636441 -21.76 11.71516 82.35794 26.88608 -7.637181 -3.808078e-11 -1.525605e-11 22.45317 -22.2385 12.05254 13.15909 4.812456 -17.24282 -1.866717 -95.27264 20.99115 26.37642 1.267313e-11 -2.088813e-11 -7.39759 1.586511 12.03066 10.79476
38.86107 102.4553 243.9127 0.8452329 -5.089554 1.869812 1.722961 6.409576 4.767043 -2.829182e-10 35.2988 1.377166e-10 -2.947131 -9.693175 -2.031072 -3.33779 -13.55535 -11.24676 -4.555603e-10 14.26934 2.886398e-10 -1.098924 -11.41626 21.06618 -2.299641 -1.110356 6.457483 -0.04276939 9.815433 -4.531869 1.610732 22.43435 6.2989 2.601929 -19.71655 7.911012 3.014301 -21.42506 11.70128 83.39878 27.82531 -8.837005 -3.903212e-11 -4.216973e-12 21.8621 -21.54099 11.91877 12.75269 5.042062 -17.50352 -1.804911 -95.63565 21.78813 25.69999 4.896836e-12 -2.729332e-11 -8.352081 1.668609 12.36469 10.87352
39.91055 102.3734 248.717 0.8749467 -4.523595 2.066293 1.583585 2.035313 4.791951 -2.551455e-10 36.90605 1.524608e-10 -2.902824 -8.992306 -2.374266 -4.148009 -9.421464 -12.53878 -5.155455e-10 11.54677 1.137886e-10 -0.5149259 -13.16621 21.13079 -2.589688 -1.209097 5.901237 0.2180079 9.573639 -5.009118 1.576611 22.53515 6.568666 2.681827 -20.15725 8.247092 3.391087 -20.82129 11.60759 84.24899 28.75117 -10.3441 -3.79866e-11 8.266411e-12 20.80653 -20.53758 11.72562 12.105 5.311007 -17.83854 -1.769566 -95.26757 22.69598 24.42368 -4.074158e-12 -3.280979e-11 -9.682633 1.878359 12.70817 10.75412
40.87619 102.2668 253.3389 0.8599536 -3.940546 2.389292 1.603868 -2.937821 4.688659 -2.071666e-10 37.57736 1.519027e-10 -2.99275 -8.143018 -2.773736 -4.785353 -4.766889 -13.60382 -5.446769e-10 9.728366 -6.002865e-11 -0.01353835 -14.84715 20.93661 -2.798133 -1.303861 5.26961 0.5243049 9.352059 -5.556161 1.538938 22.557 6.800305 2.758258 -20.54127 8.52198 3.702594 -20.03992 11.48077 85.09962 29.52233 -12.15517 -3.39737e-11 1.983013e-11 19.35941 -19.41004 11.53428 11.30219 5.607194 -18.32108 -1.795139 -94.34965 23.5103 22.66488 -1.265209e-11 -3.55422e-11 -11.36412 2.258417 13.05248 10.38968
41.7421 102.1445 257.8091 0.8022657 -3.42147 2.799316 1.754061 -7.739358 4.491838 -1.470914e-10 37.22085 1.376096e-10 -3.188041 -7.266044 -3.159944 -5.188365 -0.3070557 -14.30541 -5.355973e-10 9.004837 -2.061036e-10 0.322417 -16.19915 20.48743 -2.895825 -1.380101 4.652301 0.8269964 9.167143 -6.079985 1.503731 22.46811 6.951852 2.812049 -20.78604 8.684632 3.90001 -19.17747 11.32343 85.67491 30.01709 -13.92478 -2.768432e-11 2.870623e-11 17.72934 -18.30066 11.35405 10.45194 5.876739 -18.8436 -1.871722 -92.8962 24.09209 20.64096 -1.949052e-11 -3.521608e-11 -13.11037 2.742158 13.32445 9.833059
42.48289 102.0232 262.1604 0.6903212 -2.969019 3.248953 2.045972 -12.39851 4.193702 -7.410755e-11 35.64221 1.099466e-10 -3.505299 -6.339149 -3.530508 -5.382166 3.977922 -14.62 -4.76091e-10 9.529312 -3.221967e-10 0.461161 -17.17563 19.70557 -2.863992 -1.436956 4.040228 1.129287 9.01534 -6.579144 1.47112 22.23176 7.006806 2.834677 -20.85654 8.710717 3.965089 -18.19457 11.12196 85.83191 30.20684 -15.62077 -1.877341e-11 3.444637e-11 15.85276 -17.18155 11.17733 9.524755 6.113204 -19.40369 -2.008163 -90.73447 24.3754 18.25622 -2.423555e-11 -3.144307e-11 -14.94281 3.350362 13.50164 9.040078
43.08307 101.9138 266.4787 0.5298067 -2.659914 3.68248 2.503678 -16.60414 3.843699 4.32044e-12 33.01038 7.352989e-11 -3.975604 -5.478648 -3.880109 -5.40028 7.734666 -14.58256 -3.602044e-10 11.59492 -3.986104e-10 0.3804386 -17.75345 18.74518 -2.700905 -1.480457 3.517943 1.421236 8.990008 -7.063441 1.444783 22.01949 6.99939 2.855508 -20.87959 8.649323 3.914845 -17.2919 10.98792 86.25761 30.12735 -17.40064 -7.816635e-12 3.607696e-11 13.9632 -16.29132 11.103 8.671155 6.338572 -20.12267 -2.214722 -88.73662 24.29051 15.95041 -2.613563e-11 -2.420821e-11 -16.85044 4.076613 13.65824 8.100895
43.53729 101.8294 270.7812 0.3504582 -2.409152 4.075296 2.989235 -20.39216 3.483776 7.88928e-11 29.87346 3.877694e-11 -4.468179 -4.647465 -4.183001 -5.341263 11.09862 -14.3382 -2.207756e-10 14.16044 -4.599422e-10 0.1926806 -18.05581 17.64446 -2.476418 -1.51051 3.033663 1.688788 8.971457 -7.487906 1.421235 21.71299 6.930477 2.851191 -20.77804 8.505141 3.791303 -16.36884 10.82784 86.27322 29.88087 -18.94048 3.599809e-12 3.554446e-11 12.06527 -15.43907 11.0189 7.825583 6.51804 -20.77932 -2.435963 -86.41031 23.97654 13.6007 -2.645634e-11 -1.574746e-11 -18.63542 4.810472 13.72242 7.095236
43.85806 101.7708 275.1041 0.1737712 -2.25048 4.408485 3.477755 -23.49202 3.160202 1.429671e-10 26.65995 9.039251e-12 -4.958328 -3.944562 -4.430516 -5.238543 13.80317 -13.97063 -7.163427e-11 17.04366 -5.049483e-10 -0.06356122 -18.1295 16.59044 -2.222295 -1.531353 2.646385 1.916869 9.000813 -7.846061 1.402683 21.43642 6.837699 2.842947 -20.6511 8.333747 3.630468 -15.58241 10.70942 86.30512 29.54281 -20.27895 1.429808e-11 3.308768e-11 10.39176 -14.77675 10.97936 7.10884 6.662516 -21.40228 -2.657675 -84.40073 23.50182 11.58159 -2.529903e-11 -6.982517e-12 -20.2097 5.497805 13.7496 6.149486
44.07494 101.735 279.4911 0.02301297 -2.197964 4.673175 3.933989 -25.71451 2.913216 1.918881e-10 23.84051 -1.410052e-11 -5.409828 -3.448337 -4.618937 -5.121611 15.67039 -13.58182 6.872203e-11 19.93502 -5.336911e-10 -0.3357332 -18.0559 15.76099 -1.978789 -1.546857 2.397692 2.093623 9.1004 -8.133605 1.391053 21.29296 6.759046 2.848336 -20.58779 8.190824 3.472135 -15.0592 10.68092 86.68921 29.18913 -21.43308 2.312874e-11 2.94362e-11 9.143138 -14.41042 11.02364 6.616204 6.782568 -21.99947 -2.86008 -83.21756 23.00977 10.1883 -2.31062e-11 9.97379e-13 -21.48951 6.082078 13.79237 5.384597
44.24242 101.7123 283.9933 -0.07017224 -2.274477 4.873391 4.303284 -26.72425 2.791023 2.191711e-10 22.0208 -2.945687e-11 -5.767048 -3.270819 -4.735527 -5.010923 16.39208 -13.28622 1.737831e-10 22.41567 -5.391189e-10 -0.5663709 -17.91264 15.3797 -1.796244 -1.559076 2.348244 2.19688 9.293854 -8.330433 1.389672 21.40073 6.736456 2.885163 -20.68429 8.139453 3.361817 -14.9645 10.79616 87.77277 28.89977 -22.35988 2.856329e-11 2.548891e-11 8.596944 -14.48116 11.19616 6.478218 6.883299 -22.55459 -3.01404 -83.44921 22.6848 9.791943 -2.041967e-11 6.796641e-12 -22.3223 6.478591 13.90701 4.962026
44.40605 101.6986 288.6382 -0.1173155 -2.476416 4.999466 4.588264 -26.3527 2.725423 2.270084e-10 20.74616 -4.046709e-11 -6.02588 -3.372582 -4.75033 -4.84554 15.85321 -12.91033 2.526269e-10 24.64397 -5.106402e-10 -0.8097303 -17.49893 15.25438 -1.631129 -1.553002 2.478486 2.210512 9.528857 -8.378507 1.397869 21.58048 6.701814 2.915709 -20.76428 8.086524 3.236226 -15.16418 10.96684 88.78219 28.57098 -22.75997 3.108839e-11 2.046861e-11 8.62015 -14.87566 11.43221 6.616213 6.914678 -22.93166 -3.124894 -84.30553 22.38842 10.11203 -1.670688e-11 1.115672e-11 -22.59801 6.681363 13.98199 4.790677
